<svg xmlns="http://www.w3.org/2000/svg" xmlns:xlink="http://www.w3.org/1999/xlink" contentStyleType="text/css" data-diagram-type="STATE" height="925px" preserveAspectRatio="none" style="width:671px;height:925px;background:#FFFFFF;" version="1.1" viewBox="0 0 671 925" width="671px" zoomAndPan="magnify"><title>Kloc Digital Watch - State Machine</title><defs/><g><g class="title" data-source-line="2"><text fill="#000000" font-family="sans-serif" font-size="14" font-weight="bold" lengthAdjust="spacing" textLength="274.0869" x="191.7415" y="22.9951">Kloc Digital Watch - State Machine</text></g><g id="TimeDisplay"><rect fill="#F1F1F1" height="50.2656" rx="12.5" ry="12.5" style="stroke:#181818;stroke-width:0.5;" width="130.1211" x="134.46" y="534.4269"/><line style="stroke:#181818;stroke-width:0.5;" x1="134.46" x2="264.5811" y1="560.7238" y2="560.7238"/><text fill="#000000" font-family="sans-serif" font-size="14" lengthAdjust="spacing" textLength="90.7471" x="154.147" y="552.422">Time Display</text><text fill="#000000" font-family="sans-serif" font-size="12" lengthAdjust="spacing" textLength="110.1211" x="139.46" y="576.8624">Display HH:MM:SS</text></g><path d="M19.5,44.2969 L217.543,44.2969 A12.5,12.5 0 0 1 230.043,56.7969 L230.043,70.5938 L7,70.5938 L7,56.7969 A12.5,12.5 0 0 1 19.5,44.2969" fill="#F1F1F1"/><rect fill="none" height="403.0012" rx="12.5" ry="12.5" style="stroke:#181818;stroke-width:0.5;" width="223.043" x="7" y="44.2969"/><line style="stroke:#181818;stroke-width:0.5;" x1="7" x2="230.043" y1="70.5938" y2="70.5938"/><text fill="#000000" font-family="sans-serif" font-size="14" lengthAdjust="spacing" textLength="104.7266" x="66.1582" y="62.292">Time Set Mode</text><g id="TimeSet.SetHour"><rect fill="#F1F1F1" height="64.2344" rx="12.5" ry="12.5" style="stroke:#181818;stroke-width:0.5;" width="138.623" x="82.42" y="138.5938"/><line style="stroke:#181818;stroke-width:0.5;" x1="82.42" x2="221.043" y1="164.8906" y2="164.8906"/><text fill="#000000" font-family="sans-serif" font-size="14" lengthAdjust="spacing" textLength="68.4551" x="117.504" y="156.5889">Set Hours</text><text fill="#000000" font-family="sans-serif" font-size="12" lengthAdjust="spacing" textLength="118.623" x="87.42" y="181.0293">UP increments hour</text><text fill="#000000" font-family="sans-serif" font-size="12" lengthAdjust="spacing" textLength="67.7402" x="87.42" y="194.998">Hours flash</text></g><g id="TimeSet.SetMin"><rect fill="#F1F1F1" height="64.2344" rx="12.5" ry="12.5" style="stroke:#181818;stroke-width:0.5;" width="153.459" x="19" y="255.8238"/><line style="stroke:#181818;stroke-width:0.5;" x1="19" x2="172.459" y1="282.1206" y2="282.1206"/><text fill="#000000" font-family="sans-serif" font-size="14" lengthAdjust="spacing" textLength="82.5508" x="54.4541" y="273.8189">Set Minutes</text><text fill="#000000" font-family="sans-serif" font-size="12" lengthAdjust="spacing" textLength="133.459" x="24" y="298.2593">UP increments minute</text><text fill="#000000" font-family="sans-serif" font-size="12" lengthAdjust="spacing" textLength="79.8223" x="24" y="312.228">Minutes flash</text></g><g id="TimeSet.SetSec"><rect fill="#F1F1F1" height="64.2344" rx="12.5" ry="12.5" style="stroke:#181818;stroke-width:0.5;" width="129.6055" x="86.93" y="373.0637"/><line style="stroke:#181818;stroke-width:0.5;" x1="86.93" x2="216.5355" y1="399.3606" y2="399.3606"/><text fill="#000000" font-family="sans-serif" font-size="14" lengthAdjust="spacing" textLength="86.2559" x="108.6048" y="391.0589">Set Seconds</text><text fill="#000000" font-family="sans-serif" font-size="12" lengthAdjust="spacing" textLength="109.6055" x="91.93" y="415.4993">UP resets seconds</text><text fill="#000000" font-family="sans-serif" font-size="12" lengthAdjust="spacing" textLength="82.998" x="91.93" y="429.468">Seconds flash</text></g><ellipse cx="151.73" cy="91.5938" fill="#222222" rx="10" ry="10" style="stroke:#222222;stroke-width:1;"/><!--link *start*TimeSet to SetHour--><g class="link" data-entity-1=".start.TimeSet" data-entity-2="SetHour" data-source-line="15" data-uid="lnk5" id="link_.start.TimeSet_SetHour"><path d="M151.73,102.0437 C151.73,111.0537 151.73,119.1337 151.73,132.1237" fill="none" id="*start*TimeSet-to-SetHour" style="stroke:#181818;stroke-width:1;"/><polygon fill="#181818" points="151.73,138.1237,155.73,129.1237,151.73,133.1237,147.73,129.1237,151.73,138.1237" style="stroke:#181818;stroke-width:1;"/></g><!--link SetHour to SetMin--><g class="link" data-entity-1="SetHour" data-entity-2="SetMin" data-source-line="17" data-uid="lnk6" id="link_SetHour_SetMin"><path d="M136.43,203.1938 C128.53,219.4537 121.532,233.837 113.632,250.097" fill="none" id="SetHour-to-SetMin" style="stroke:#181818;stroke-width:1;"/><polygon fill="#181818" points="111.01,255.4937,118.5409,249.1466,113.195,250.9965,111.3452,245.6506,111.01,255.4937" style="stroke:#181818;stroke-width:1;"/><text fill="#000000" font-family="sans-serif" font-size="13" lengthAdjust="spacing" textLength="24.4067" x="128.73" y="233.8906">SET</text></g><!--link SetMin to SetSec--><g class="link" data-entity-1="SetMin" data-entity-2="SetSec" data-source-line="18" data-uid="lnk7" id="link_SetMin_SetSec"><path d="M111.03,320.4338 C118.93,336.6937 125.9267,351.0776 133.8267,367.3276" fill="none" id="SetMin-to-SetSec" style="stroke:#181818;stroke-width:1;"/><polygon fill="#181818" points="136.45,372.7238,136.1124,362.8807,134.2639,368.227,128.9176,366.3785,136.45,372.7238" style="stroke:#181818;stroke-width:1;"/><text fill="#000000" font-family="sans-serif" font-size="13" lengthAdjust="spacing" textLength="24.4067" x="128.73" y="351.1306">SET</text></g><!--link SetSec to SetHour--><g class="link" data-entity-1="SetSec" data-entity-2="SetHour" data-source-line="19" data-uid="lnk8" id="link_SetSec_SetHour"><path d="M165.77,372.9138 C171.99,357.3638 178.61,338.0838 181.73,320.0637 C186.6,291.9238 186.6,283.9538 181.73,255.8238 C178.61,237.7938 174.2196,224.0841 167.9996,208.5441" fill="none" id="SetSec-to-SetHour" style="stroke:#181818;stroke-width:1;"/><polygon fill="#181818" points="165.77,202.9738,165.4008,212.8157,167.628,207.6157,172.8279,209.8429,165.77,202.9738" style="stroke:#181818;stroke-width:1;"/><text fill="#000000" font-family="sans-serif" font-size="13" lengthAdjust="spacing" textLength="24.4067" x="186.73" y="292.5106">SET</text></g><path d="M70.21,671.8269 L204.833,671.8269 A12.5,12.5 0 0 1 217.333,684.3269 L217.333,698.1238 L57.71,698.1238 L57.71,684.3269 A12.5,12.5 0 0 1 70.21,671.8269" fill="#F1F1F1"/><rect fill="none" height="247.5669" rx="12.5" ry="12.5" style="stroke:#181818;stroke-width:0.5;" width="159.623" x="57.71" y="671.8269"/><line style="stroke:#181818;stroke-width:0.5;" x1="57.71" x2="217.333" y1="698.1238" y2="698.1238"/><text fill="#000000" font-family="sans-serif" font-size="14" lengthAdjust="spacing" textLength="111.4736" x="81.7847" y="689.822">Alarm Set Mode</text><g id="AlarmSet.SetAHour"><rect fill="#F1F1F1" height="50.2656" rx="12.5" ry="12.5" style="stroke:#181818;stroke-width:0.5;" width="138.623" x="69.71" y="766.1238"/><line style="stroke:#181818;stroke-width:0.5;" x1="69.71" x2="208.333" y1="792.4206" y2="792.4206"/><text fill="#000000" font-family="sans-serif" font-size="14" lengthAdjust="spacing" textLength="107.0508" x="85.4961" y="784.1189">Set Alarm Hour</text><text fill="#000000" font-family="sans-serif" font-size="12" lengthAdjust="spacing" textLength="118.623" x="74.71" y="808.5593">UP increments hour</text></g><rect fill="#F1F1F1" height="40" rx="12.5" ry="12.5" style="stroke:#181818;stroke-width:0.5;" width="108.1709" x="84.94" y="869.3938"/><text fill="#000000" font-family="sans-serif" font-size="14" lengthAdjust="spacing" textLength="98.1709" x="89.94" y="894.2404">Set Alarm Min</text><ellipse cx="139.02" cy="719.1238" fill="#222222" rx="10" ry="10" style="stroke:#222222;stroke-width:1;"/><!--link *start*AlarmSet to SetAHour--><g class="link" data-entity-1=".start.AlarmSet" data-entity-2="SetAHour" data-source-line="35" data-uid="lnk10" id="link_.start.AlarmSet_SetAHour"><path d="M139.02,729.5838 C139.02,738.8638 139.02,747.3838 139.02,759.8938" fill="none" id="*start*AlarmSet-to-SetAHour" style="stroke:#181818;stroke-width:1;"/><polygon fill="#181818" points="139.02,765.8938,143.02,756.8938,139.02,760.8938,135.02,756.8938,139.02,765.8938" style="stroke:#181818;stroke-width:1;"/></g><!--link SetAHour to SetAMin--><g class="link" data-entity-1="SetAHour" data-entity-2="SetAMin" data-source-line="36" data-uid="lnk11" id="link_SetAHour_SetAMin"><path d="M121.87,816.6538 C116.47,827.1838 112.7,839.7438 116.02,851.3938 C117.77,857.5038 117.6854,858.48 121.0354,863.9" fill="none" id="SetAHour-to-SetAMin" style="stroke:#181818;stroke-width:1;"/><polygon fill="#181818" points="124.19,869.0038,122.8607,859.245,121.5612,864.7506,116.0556,863.4511,124.19,869.0038" style="stroke:#181818;stroke-width:1;"/><text fill="#000000" font-family="sans-serif" font-size="13" lengthAdjust="spacing" textLength="24.4067" x="117.02" y="847.4606">SET</text></g><!--link SetAMin to SetAHour--><g class="link" data-entity-1="SetAMin" data-entity-2="SetAHour" data-source-line="37" data-uid="lnk12" id="link_SetAMin_SetAHour"><path d="M140.87,869.2038 C141.35,863.4838 141.79,857.1938 142.02,851.3938 C142.48,839.9938 142.3847,833.3501 141.6647,822.7001" fill="none" id="SetAMin-to-SetAHour" style="stroke:#181818;stroke-width:1;"/><polygon fill="#181818" points="141.26,816.7138,137.8762,825.9631,141.5973,821.7024,145.858,825.4234,141.26,816.7138" style="stroke:#181818;stroke-width:1;"/><text fill="#000000" font-family="sans-serif" font-size="13" lengthAdjust="spacing" textLength="24.4067" x="143.02" y="847.4606">SET</text></g><g id="AlarmActive"><rect fill="#F1F1F1" height="50.2656" rx="12.5" ry="12.5" style="stroke:#181818;stroke-width:0.5;" width="136.2246" x="256.41" y="770.4769"/><line style="stroke:#181818;stroke-width:0.5;" x1="256.41" x2="392.6346" y1="796.7738" y2="796.7738"/><text fill="#000000" font-family="sans-serif" font-size="14" lengthAdjust="spacing" textLength="116.2246" x="266.41" y="788.472">Alarm Activation</text><text fill="#000000" font-family="sans-serif" font-size="12" lengthAdjust="spacing" textLength="106.8867" x="261.41" y="812.9124">UP toggles On/Off</text></g><ellipse cx="640.52" cy="245.7969" fill="#222222" rx="10" ry="10" style="stroke:#222222;stroke-width:1;"/><g class="entity" data-entity="GMN2" data-source-line="58" data-uid="ent0003" id="entity_GMN2"><path d="M265.1,202.9669 L265.1,241.7969 L230.34,245.7969 L265.1,249.7969 L265.1,288.6309 A0,0 0 0 0 265.1,288.6309 L595.9418,288.6309 A0,0 0 0 0 595.9418,288.6309 L595.9418,212.9669 L585.9418,202.9669 L265.1,202.9669 A0,0 0 0 0 265.1,202.9669" fill="#FEFFDD" style="stroke:#181818;stroke-width:0.5;"/><path d="M585.9418,202.9669 L585.9418,212.9669 L595.9418,212.9669 L585.9418,202.9669" fill="#FEFFDD" style="stroke:#181818;stroke-width:0.5;"/><text fill="#000000" font-family="sans-serif" font-size="13" lengthAdjust="spacing" textLength="160.7227" x="271.1" y="220.0338">Error: Ambiguity/Conflict</text><text fill="#000000" font-family="sans-serif" font-size="13" lengthAdjust="spacing" textLength="309.8418" x="271.1" y="235.1666">If SET is used to switch sub-states (Hour-&gt;Min),</text><text fill="#000000" font-family="sans-serif" font-size="13" lengthAdjust="spacing" textLength="272.4478" x="271.1" y="250.2994">how can it also be used to exit the mode?</text><text fill="#000000" font-family="sans-serif" font-size="13" lengthAdjust="spacing" textLength="309.4292" x="271.1" y="265.4322">Requirement "Return by same button" conflicts</text><text fill="#000000" font-family="sans-serif" font-size="13" lengthAdjust="spacing" textLength="158.7168" x="271.1" y="280.565">with internal navigation.</text></g><g class="entity" data-entity="GMN5" data-source-line="66" data-uid="ent0006" id="entity_GMN5"><path d="M299.87,524.2969 L299.87,594.8281 A0,0 0 0 0 299.87,594.8281 L450.09,594.8281 L340.52,769.9769 L458.09,594.8281 L653.1635,594.8281 A0,0 0 0 0 653.1635,594.8281 L653.1635,534.2969 L643.1635,524.2969 L299.87,524.2969 A0,0 0 0 0 299.87,524.2969" fill="#FEFFDD" style="stroke:#181818;stroke-width:0.5;"/><path d="M643.1635,524.2969 L643.1635,534.2969 L653.1635,534.2969 L643.1635,524.2969" fill="#FEFFDD" style="stroke:#181818;stroke-width:0.5;"/><text fill="#000000" font-family="sans-serif" font-size="13" lengthAdjust="spacing" textLength="158.1011" x="305.87" y="541.3638">Error: Missing Transition</text><text fill="#000000" font-family="sans-serif" font-size="13" lengthAdjust="spacing" textLength="332.2935" x="305.87" y="556.4966">Can you go from AlarmSet directly to AlarmActive?</text><text fill="#000000" font-family="sans-serif" font-size="13" lengthAdjust="spacing" textLength="299.146" x="305.87" y="571.6294">Requirements implies TimeDisplay is the hub,</text><text fill="#000000" font-family="sans-serif" font-size="13" lengthAdjust="spacing" textLength="139.9849" x="305.87" y="586.7622">but flow is inefficient.</text></g><!--link *start* to TimeDisplay--><g class="link" data-entity-1=".start." data-entity-2="TimeDisplay" data-source-line="4" data-uid="lnk3" id="link_.start._TimeDisplay"><path d="M642.49,255.8469 C648.7,287.0169 664.57,391.1769 613.52,447.2969 C511.9,559.0369 426.36,478.2169 282.52,524.2969 C273.61,527.1569 269.9057,528.356 260.9057,531.886" fill="none" id="*start*-to-TimeDisplay" style="stroke:#181818;stroke-width:1;"/><polygon fill="#181818" points="255.32,534.0769,265.1591,534.5144,259.9748,532.2512,262.238,527.0668,255.32,534.0769" style="stroke:#181818;stroke-width:1;"/></g><!--link TimeDisplay to TimeSet--><g class="link" data-entity-1="TimeDisplay" data-entity-2="TimeSet" data-source-line="47" data-uid="lnk13" id="link_TimeDisplay_TimeSet"><path d="M193.2,534.2469 C187.89,513.7969 181.2488,488.2141 172.2488,453.5741" fill="none" id="TimeDisplay-to-TimeSet" style="stroke:#181818;stroke-width:1;"/><polygon fill="#181818" points="170.74,447.7669,169.1317,457.4835,171.9973,452.6062,176.8747,455.4718,170.74,447.7669" style="stroke:#181818;stroke-width:1;"/><text fill="#000000" font-family="sans-serif" font-size="13" lengthAdjust="spacing" textLength="39.6729" x="183.52" y="490.3638">MODE</text></g><!--link TimeSet to TimeDisplay--><g class="link" data-entity-1="TimeSet" data-entity-2="TimeDisplay" data-source-line="52" data-uid="lnk16" id="link_TimeSet_TimeDisplay"><path d="M115.89,447.5969 C119.62,463.7769 124.71,479.5569 131.52,494.2969 C138.68,509.7769 146.8283,519.4911 159.3583,530.1411" fill="none" id="TimeSet-to-TimeDisplay" style="stroke:#181818;stroke-width:1;"/><polygon fill="#181818" points="163.93,534.0269,159.6629,525.1504,160.1202,530.7887,154.4819,531.246,163.93,534.0269" style="stroke:#181818;stroke-width:1;"/><text fill="#000000" font-family="sans-serif" font-size="13" lengthAdjust="spacing" textLength="39.6729" x="132.52" y="490.3638">MODE</text></g><!--link TimeDisplay to AlarmSet--><g class="link" data-entity-1="TimeDisplay" data-entity-2="AlarmSet" data-source-line="48" data-uid="lnk14" id="link_TimeDisplay_AlarmSet"><path d="M162.62,585.1169 C149.98,595.6869 137.31,609.2169 130.52,624.8269 C124.16,639.4369 121.2998,649.4577 119.9498,665.6077" fill="none" id="TimeDisplay-to-AlarmSet" style="stroke:#181818;stroke-width:1;"/><polygon fill="#181818" points="119.45,671.5869,124.1858,662.9514,119.8665,666.6043,116.2136,662.285,119.45,671.5869" style="stroke:#181818;stroke-width:1;"/><text fill="#000000" font-family="sans-serif" font-size="13" lengthAdjust="spacing" textLength="24.4067" x="131.52" y="637.8938">SET</text></g><!--link AlarmSet to TimeDisplay--><g class="link" data-entity-1="AlarmSet" data-entity-2="TimeDisplay" data-source-line="53" data-uid="lnk17" id="link_AlarmSet_TimeDisplay"><path d="M170.12,671.5469 C178.84,638.6369 185.8544,612.157 191.4644,590.967" fill="none" id="AlarmSet-to-TimeDisplay" style="stroke:#181818;stroke-width:1;"/><polygon fill="#181818" points="193,585.1669,186.8298,592.8434,191.7203,590.0004,194.5634,594.8909,193,585.1669" style="stroke:#181818;stroke-width:1;"/><text fill="#000000" font-family="sans-serif" font-size="13" lengthAdjust="spacing" textLength="24.4067" x="182.52" y="637.8938">SET</text></g><!--link TimeDisplay to AlarmActive--><g class="link" data-entity-1="TimeDisplay" data-entity-2="AlarmActive" data-source-line="49" data-uid="lnk15" id="link_TimeDisplay_AlarmActive"><path d="M212.66,585.1669 C236.67,630.1169 284.5232,719.7245 308.5432,764.6945" fill="none" id="TimeDisplay-to-AlarmActive" style="stroke:#181818;stroke-width:1;"/><polygon fill="#181818" points="311.37,769.9869,310.658,760.1638,309.0143,765.5766,303.6015,763.9329,311.37,769.9869" style="stroke:#181818;stroke-width:1;"/><text fill="#000000" font-family="sans-serif" font-size="13" lengthAdjust="spacing" textLength="17.3545" x="241.52" y="637.8938">UP</text></g><!--link AlarmActive to TimeDisplay--><g class="link" data-entity-1="AlarmActive" data-entity-2="TimeDisplay" data-source-line="54" data-uid="lnk18" id="link_AlarmActive_TimeDisplay"><path d="M320.23,770.2069 C313.33,735.6869 297.41,671.5969 267.52,624.8269 C257.99,609.9069 248.7661,599.9857 236.1261,588.9857" fill="none" id="AlarmActive-to-TimeDisplay" style="stroke:#181818;stroke-width:1;"/><polygon fill="#181818" points="231.6,585.0469,235.7632,593.9725,235.3717,588.3292,241.015,587.9377,231.6,585.0469" style="stroke:#181818;stroke-width:1;"/><text fill="#000000" font-family="sans-serif" font-size="13" lengthAdjust="spacing" textLength="17.3545" x="278.52" y="637.8938">UP</text></g><!--SRC=[TLLBRzim3BxxLn2zh1sMzPx31gCjq688EZGTTXXsK6pQ9Y1BcKItouRzzr7oIqxI70A8_CHy3qbfg4J0Tiy7AD4NZlPCrcHCh16-Q5l0BTN4IiDtnKK3AzYoOeIDAXeoc6K_tl-4rUeJF5EBj-JtMXsop4VCHQZ1KBm0vLCG_Cr0FcbbFMBX_dwzsQots-pVSjOM6JQsn6bOAFI31bWetDlE-GYHLLWS0pPaEiO98ijZn1OBQye98Sk8Y5-ZudHu_1eAOrF6YgJjtVFO38MX9mENlL18XYRDnUWrVFiAP0g7BHhsq8m4Pa1K3vLMlbdix-aijxVHY2LYCEVCX9wqJ73eKNRxtgHbUt1ks3xdbslbscM0iNGsmHuSb8m9vETox652U4ADKHu7DMyV5rFd9AOyoIb_8upyxJIE9US5quiAjseM7Miuw4uhSIBRkjQImAEvVgogCF0TF3jbF8Kf7dR8huW6MYL4Mt7JP-ar6czZS4ZYVBozEsbFplVAphOJHe70nHDovmpi3k2LNCLTnnmaQLjJ0PStrh1J9HMCPS38ME7Pg1UoxYeRwHmz52EzYSvfFz1BwPmYUdeFtdTYsGlvJcdwWsLch6JWg6uOR3KQ8eRVEMVT6l9sHtL7VBWMwfKMuj9xg29nyj1vqS4M_2k5PyztkrLCrSDbY7xrIGx9rGVPqjXNA9G1Ob3QMn4zxSNVKkG6OqQV1Vk4lphg3ykRVXO3ct2jvBSREL-CpiW3RCJCEXwaZncQ4eB0h9V9TXz49aRDGZVaFPawEK7Ikn761zj1RQ5ojfqFH2dy2jQ7m3yPTyJU0xLxJRXyqSMseBRfTi4O4IIFWBWZPVcdg2egIBREtFy3]--></g></svg>