<svg xmlns="http://www.w3.org/2000/svg" xmlns:xlink="http://www.w3.org/1999/xlink" contentStyleType="text/css" data-diagram-type="CLASS" height="398px" preserveAspectRatio="none" style="width:372px;height:398px;background:#FFFFFF;" version="1.1" viewBox="0 0 372 398" width="372px" zoomAndPan="magnify"><defs/><g><!--class User--><g class="entity" data-entity="User" data-source-line="1" data-uid="ent0002" id="entity_User"><rect fill="#F1F1F1" height="194.6719" rx="2.5" ry="2.5" style="stroke:#181818;stroke-width:0.5;" width="358.6572" x="7" y="7"/><ellipse cx="166.1235" cy="23" fill="#ADD1B2" rx="11" ry="11" style="stroke:#181818;stroke-width:1;"/><path d="M169.0923,28.6406 Q168.5142,28.9375 167.8735,29.0781 Q167.2329,29.2344 166.5298,29.2344 Q164.0298,29.2344 162.7017,27.5938 Q161.3892,25.9375 161.3892,22.8125 Q161.3892,19.6875 162.7017,18.0313 Q164.0298,16.375 166.5298,16.375 Q167.2329,16.375 167.8735,16.5313 Q168.5298,16.6875 169.0923,16.9844 L169.0923,19.7031 Q168.4673,19.125 167.8735,18.8594 Q167.2798,18.5781 166.6548,18.5781 Q165.311,18.5781 164.6235,19.6563 Q163.936,20.7188 163.936,22.8125 Q163.936,24.9063 164.6235,25.9844 Q165.311,27.0469 166.6548,27.0469 Q167.2798,27.0469 167.8735,26.7813 Q168.4673,26.5 169.0923,25.9219 L169.0923,28.6406 Z " fill="#000000"/><text fill="#000000" font-family="sans-serif" font-size="14" lengthAdjust="spacing" textLength="31.9102" x="186.6235" y="27.8467">User</text><line style="stroke:#181818;stroke-width:0.5;" x1="8" x2="364.6572" y1="39" y2="39"/><ellipse cx="18" cy="52.6484" fill="none" rx="3" ry="3" style="stroke:#038048;stroke-width:1;"/><text fill="#000000" font-family="sans-serif" font-size="14" lengthAdjust="spacing" textLength="52.6299" x="27" y="55.9951">UUID id</text><ellipse cx="18" cy="68.9453" fill="none" rx="3" ry="3" style="stroke:#038048;stroke-width:1;"/><text fill="#000000" font-family="sans-serif" font-size="14" lengthAdjust="spacing" textLength="332.6572" x="27" y="72.292">String email {unique, pattern="^.+@.+\..+$"}</text><ellipse cx="18" cy="85.2422" fill="none" rx="3" ry="3" style="stroke:#038048;stroke-width:1;"/><text fill="#000000" font-family="sans-serif" font-size="14" lengthAdjust="spacing" textLength="148.2168" x="27" y="88.5889">String passwordHash</text><ellipse cx="18" cy="101.5391" fill="none" rx="3" ry="3" style="stroke:#038048;stroke-width:1;"/><text fill="#000000" font-family="sans-serif" font-size="14" lengthAdjust="spacing" textLength="85.9346" x="27" y="104.8857">String name</text><ellipse cx="18" cy="117.8359" fill="none" rx="3" ry="3" style="stroke:#038048;stroke-width:1;"/><text fill="#000000" font-family="sans-serif" font-size="14" lengthAdjust="spacing" textLength="141.3057" x="27" y="121.1826">DateTime createdAt</text><ellipse cx="18" cy="134.1328" fill="none" rx="3" ry="3" style="stroke:#038048;stroke-width:1;"/><text fill="#000000" font-family="sans-serif" font-size="14" lengthAdjust="spacing" textLength="165.3203" x="27" y="137.4795">Boolean isEmailVerified</text><line style="stroke:#181818;stroke-width:0.5;" x1="8" x2="364.6572" y1="144.7813" y2="144.7813"/><ellipse cx="18" cy="158.4297" fill="#84BE84" rx="3" ry="3" style="stroke:#038048;stroke-width:1;"/><text fill="#000000" font-family="sans-serif" font-size="14" lengthAdjust="spacing" textLength="228.0469" x="27" y="161.7764">register(email, password, name)</text><ellipse cx="18" cy="174.7266" fill="#84BE84" rx="3" ry="3" style="stroke:#038048;stroke-width:1;"/><text fill="#000000" font-family="sans-serif" font-size="14" lengthAdjust="spacing" textLength="129.1719" x="27" y="178.0732">verifyEmail(token)</text><ellipse cx="18" cy="191.0234" fill="#84BE84" rx="3" ry="3" style="stroke:#038048;stroke-width:1;"/><text fill="#000000" font-family="sans-serif" font-size="14" lengthAdjust="spacing" textLength="187.8926" x="27" y="194.3701">changePassword(old, new)</text></g><!--class VerificationToken--><g class="entity" data-entity="VerificationToken" data-source-line="13" data-uid="ent0003" id="entity_VerificationToken"><rect fill="#F1F1F1" height="113.1875" rx="2.5" ry="2.5" style="stroke:#181818;stroke-width:0.5;" width="190.1924" x="91.23" y="278.67"/><ellipse cx="122.31" cy="294.67" fill="#ADD1B2" rx="11" ry="11" style="stroke:#181818;stroke-width:1;"/><path d="M125.2788,300.3106 Q124.7007,300.6075 124.06,300.7481 Q123.4194,300.9044 122.7163,300.9044 Q120.2163,300.9044 118.8882,299.2638 Q117.5757,297.6075 117.5757,294.4825 Q117.5757,291.3575 118.8882,289.7013 Q120.2163,288.045 122.7163,288.045 Q123.4194,288.045 124.06,288.2013 Q124.7163,288.3575 125.2788,288.6544 L125.2788,291.3731 Q124.6538,290.795 124.06,290.5294 Q123.4663,290.2481 122.8413,290.2481 Q121.4975,290.2481 120.81,291.3263 Q120.1225,292.3888 120.1225,294.4825 Q120.1225,296.5763 120.81,297.6544 Q121.4975,298.7169 122.8413,298.7169 Q123.4663,298.7169 124.06,298.4513 Q124.6538,298.17 125.2788,297.5919 L125.2788,300.3106 Z " fill="#000000"/><text fill="#000000" font-family="sans-serif" font-size="14" lengthAdjust="spacing" textLength="122.459" x="139.8834" y="299.5167">VerificationToken</text><line style="stroke:#181818;stroke-width:0.5;" x1="92.23" x2="280.4224" y1="310.67" y2="310.67"/><ellipse cx="102.23" cy="324.3184" fill="none" rx="3" ry="3" style="stroke:#038048;stroke-width:1;"/><text fill="#000000" font-family="sans-serif" font-size="14" lengthAdjust="spacing" textLength="52.6299" x="111.23" y="327.6651">UUID id</text><ellipse cx="102.23" cy="340.6153" fill="none" rx="3" ry="3" style="stroke:#038048;stroke-width:1;"/><text fill="#000000" font-family="sans-serif" font-size="14" lengthAdjust="spacing" textLength="164.1924" x="111.23" y="343.962">String token {indexed}</text><ellipse cx="102.23" cy="356.9122" fill="none" rx="3" ry="3" style="stroke:#038048;stroke-width:1;"/><text fill="#000000" font-family="sans-serif" font-size="14" lengthAdjust="spacing" textLength="139.0088" x="111.23" y="360.2589">DateTime expiresAt</text><line style="stroke:#181818;stroke-width:0.5;" x1="92.23" x2="280.4224" y1="367.5606" y2="367.5606"/><ellipse cx="102.23" cy="381.2091" fill="#84BE84" rx="3" ry="3" style="stroke:#038048;stroke-width:1;"/><text fill="#000000" font-family="sans-serif" font-size="14" lengthAdjust="spacing" textLength="127.2373" x="111.23" y="384.5557">isValid() : Boolean</text></g><!--reverse link User to VerificationToken--><g class="link" data-entity-1="User" data-entity-2="VerificationToken" data-source-line="20" data-uid="lnk4" id="link_User_VerificationToken"><path codeLine="20" d="M186.33,214.09 C186.33,240.08 186.33,255.33 186.33,278.28" fill="none" id="User-backto-VerificationToken" style="stroke:#181818;stroke-width:1;"/><polygon fill="#181818" points="186.33,202.09,182.33,208.09,186.33,214.09,190.33,208.09,186.33,202.09" style="stroke:#181818;stroke-width:1;"/><polygon fill="#000000" points="191.33,245.2364,194.2689,236.1913,188.3911,236.1913,191.33,245.2364" style="stroke:#000000;stroke-width:1;"/><text fill="#000000" font-family="sans-serif" font-size="13" lengthAdjust="spacing" textLength="22.9785" x="200.33" y="244.7369">has</text><text fill="#000000" font-family="sans-serif" font-size="13" lengthAdjust="spacing" textLength="8.271" x="178.0463" y="221.8914">1</text><text fill="#000000" font-family="sans-serif" font-size="13" lengthAdjust="spacing" textLength="24.8066" x="160.9171" y="267.496">0..1</text></g><!--SRC=[VL71IiD04BtdAuRW8J7fejU2OgM2tWIRdaGOicCoTBCRTxUsKlBl9kccq0hkQNRVl7dlpPOAdOF2aOL31Ft9e2XUbi0otDwyPLq1DSWA3blDNrlAeKNloUgx-4Da3o9x5oAxYhjpIjjFtXahdz7LvuZ6XiBB4Zsjk24eBVMbNFW0F1gZ23MmUngarsJvasboPQbYrpj8Hb_vIIiVPwUXwtiW_Opyn9iDwGaeQzGLlGPIOjH0f5qQTL5KZXivwfNesUZLGFr_FVxOmbhIdcHt6OxsBLjoft3irgXO9YdCfw23zFWDyMqCrxCPn3T2zELV8tEeqS7zBm00]--></g></svg>