<svg xmlns="http://www.w3.org/2000/svg" xmlns:xlink="http://www.w3.org/1999/xlink" contentStyleType="text/css" data-diagram-type="CLASS" height="203px" preserveAspectRatio="none" style="width:1683px;height:203px;background:#FFFFFF;" version="1.1" viewBox="0 0 1683 203" width="1683px" zoomAndPan="magnify"><title>Communication Diagram: Turn On Lights</title><defs/><g><g class="title" data-source-line="1"><text fill="#000000" font-family="sans-serif" font-size="14" font-weight="bold" lengthAdjust="spacing" textLength="321.5352" x="673.9671" y="22.9951">Communication Diagram: Turn On Lights</text></g><g class="entity" data-entity="User" data-source-line="7" data-uid="ent0002" id="entity_User"><rect fill="#F1F1F1" height="36.2969" rx="2.5" ry="2.5" style="stroke:#181818;stroke-width:0.5;" width="50.627" x="7" y="118.7128"/><text fill="#000000" font-family="sans-serif" font-size="14" lengthAdjust="spacing" textLength="36.627" x="14" y="133.7079">:User</text><line style="stroke:#181818;stroke-width:0.5;" x1="8" x2="56.627" y1="139.0097" y2="139.0097"/></g><g class="entity" data-entity="Alexa" data-source-line="8" data-uid="ent0003" id="entity_Alexa"><rect fill="#F1F1F1" height="36.2969" rx="2.5" ry="2.5" style="stroke:#181818;stroke-width:0.5;" width="120.8389" x="296.89" y="118.7128"/><text fill="#000000" font-family="sans-serif" font-size="14" lengthAdjust="spacing" textLength="106.8389" x="303.89" y="133.7079">:VoiceAssistant</text><line style="stroke:#181818;stroke-width:0.5;" x1="297.89" x2="416.7289" y1="139.0097" y2="139.0097"/></g><g class="entity" data-entity="Hub" data-source-line="9" data-uid="ent0004" id="entity_Hub"><rect fill="#F1F1F1" height="36.2969" rx="2.5" ry="2.5" style="stroke:#181818;stroke-width:0.5;" width="116.1768" x="1264.23" y="118.7128"/><text fill="#000000" font-family="sans-serif" font-size="14" lengthAdjust="spacing" textLength="102.1768" x="1271.23" y="133.7079">:HubController</text><line style="stroke:#181818;stroke-width:0.5;" x1="1265.23" x2="1379.4068" y1="139.0097" y2="139.0097"/></g><g class="entity" data-entity="Bulb" data-source-line="10" data-uid="ent0005" id="entity_Bulb"><rect fill="#F1F1F1" height="36.2969" rx="2.5" ry="2.5" style="stroke:#181818;stroke-width:0.5;" width="92.3193" x="1585.15" y="118.7128"/><text fill="#000000" font-family="sans-serif" font-size="14" lengthAdjust="spacing" textLength="78.3193" x="1592.15" y="133.7079">:SmartBulb</text><line style="stroke:#181818;stroke-width:0.5;" x1="1586.15" x2="1676.4693" y1="139.0097" y2="139.0097"/></g><g class="entity" data-entity="Cloud" data-source-line="11" data-uid="ent0006" id="entity_Cloud"><rect fill="#F1F1F1" height="36.2969" rx="2.5" ry="2.5" style="stroke:#181818;stroke-width:0.5;" width="110.4482" x="674.09" y="118.7128"/><text fill="#000000" font-family="sans-serif" font-size="14" lengthAdjust="spacing" textLength="96.4482" x="681.09" y="133.7079">:CloudService</text><line style="stroke:#181818;stroke-width:0.5;" x1="675.09" x2="783.5382" y1="139.0097" y2="139.0097"/></g><!--link User to Alexa--><g class="link" data-entity-1="User" data-entity-2="Alexa" data-source-line="14" data-uid="lnk7" id="link_User_Alexa"><path codeLine="14" d="M58.09,136.8628 C109.28,136.8628 225.01,136.8628 296.61,136.8628" fill="none" id="User-Alexa" style="stroke:#181818;stroke-width:1;"/><text fill="#000000" font-family="sans-serif" font-size="13" lengthAdjust="spacing" textLength="73.3979" x="140.9968" y="79.9297">Voice Input</text><path d="M79.76,88.9956 L79.76,128.9956 L274.76,128.9956 L274.76,98.9956 L264.76,88.9956 L79.76,88.9956" fill="#FFFF00" style="stroke:#181818;stroke-width:0.5;"/><path d="M264.76,88.9956 L264.76,98.9956 L274.76,98.9956 L264.76,88.9956" fill="#FFFF00" style="stroke:#181818;stroke-width:0.5;"/><text fill="#000000" font-family="sans-serif" font-size="13" lengthAdjust="spacing" textLength="98.5601" x="85.76" y="106.0625">Heatmap: LOW</text><text fill="#000000" font-family="sans-serif" font-size="13" lengthAdjust="spacing" textLength="174.8716" x="85.76" y="121.1953">(Human interaction speed)</text></g><!--link User to Alexa--><g class="link" data-entity-1="User" data-entity-2="Alexa" data-source-line="39" data-uid="lnk11" id="link_User_Alexa"><path codeLine="39" d="M58.13,141.7428 C85.75,146.6928 130.92,154.0228 170.26,156.8628 C212.61,159.9128 254.2558,155.6637 290.8258,149.7937" fill="none" id="User-to-Alexa" style="stroke:#181818;stroke-width:1;"/><polygon fill="#181818" points="296.75,148.8428,287.2298,146.3197,291.8132,149.6352,288.4977,154.2186,296.75,148.8428" style="stroke:#181818;stroke-width:1;"/><text fill="#000000" font-family="sans-serif" font-size="13" lengthAdjust="spacing" textLength="12.6509" x="171.26" y="152.9297">1:</text><text fill="#000000" font-family="sans-serif" font-size="13" lengthAdjust="spacing" textLength="89.8066" x="199.0832" y="146.2863">Turn on lights</text></g><!--link Alexa to User--><g class="link" data-entity-1="Alexa" data-entity-2="User" data-source-line="53" data-uid="lnk19" id="link_Alexa_User"><path codeLine="53" d="M343.68,118.4628 C329.78,101.4028 306.51,77.1428 279.76,66.8628 C269.13,62.7728 84.68,61.2728 74.76,66.8628 C55.32,77.8128 45.7889,96.0062 39.7489,112.8162" fill="none" id="Alexa-to-User" style="stroke:#181818;stroke-width:1;"/><polygon fill="#181818" points="37.72,118.4628,44.5277,111.3455,39.4107,113.7573,36.9989,108.6404,37.72,118.4628" style="stroke:#181818;stroke-width:1;"/><text fill="#000000" font-family="sans-serif" font-size="13" lengthAdjust="spacing" textLength="12.6509" x="171.26" y="56.9297">9:</text><text fill="#000000" font-family="sans-serif" font-size="13" lengthAdjust="spacing" textLength="18.7573" x="18.7355" y="107.6186">OK</text></g><!--link Alexa to Cloud--><g class="link" data-entity-1="Alexa" data-entity-2="Cloud" data-source-line="20" data-uid="lnk8" id="link_Alexa_Cloud"><path codeLine="20" d="M417.91,136.8628 C488.73,136.8628 604.96,136.8628 673.61,136.8628" fill="none" id="Alexa-Cloud" style="stroke:#181818;stroke-width:1;"/><text fill="#000000" font-family="sans-serif" font-size="13" lengthAdjust="spacing" textLength="51.8477" x="520.212" y="79.9297">Internet</text><path d="M439.91,88.9956 L439.91,128.9956 L651.91,128.9956 L651.91,98.9956 L641.91,88.9956 L439.91,88.9956" fill="#FFFF00" style="stroke:#181818;stroke-width:0.5;"/><path d="M641.91,88.9956 L641.91,98.9956 L651.91,98.9956 L641.91,88.9956" fill="#FFFF00" style="stroke:#181818;stroke-width:0.5;"/><text fill="#000000" font-family="sans-serif" font-size="13" lengthAdjust="spacing" textLength="101.6895" x="445.91" y="106.0625">Heatmap: HIGH</text><text fill="#000000" font-family="sans-serif" font-size="13" lengthAdjust="spacing" textLength="191.4517" x="445.91" y="121.1953">(Constant audio stream/ping)</text></g><!--link Alexa to Cloud--><g class="link" data-entity-1="Alexa" data-entity-2="Cloud" data-source-line="42" data-uid="lnk12" id="link_Alexa_Cloud"><path codeLine="42" d="M417.81,153.6228 C424.38,154.9428 431.01,156.0728 437.41,156.8628 C485.27,162.7428 606.6,163.1328 654.41,156.8628 C660.68,156.0328 661.3178,156.1212 667.7378,154.7212" fill="none" id="Alexa-to-Cloud" style="stroke:#181818;stroke-width:1;"/><polygon fill="#181818" points="673.6,153.4428,663.9544,151.4522,668.7148,154.5081,665.6589,159.2685,673.6,153.4428" style="stroke:#181818;stroke-width:1;"/><text fill="#000000" font-family="sans-serif" font-size="13" lengthAdjust="spacing" textLength="215.1982" x="438.41" y="152.9297">2: ProcessVoiceCommand(audio)</text></g><!--link Cloud to Alexa--><g class="link" data-entity-1="Cloud" data-entity-2="Alexa" data-source-line="52" data-uid="lnk18" id="link_Cloud_Alexa"><path codeLine="52" d="M716.87,118.4928 C704.1,101.4528 682.52,77.2128 656.91,66.8628 C645.48,62.2328 446.42,62.4328 434.91,66.8628 C408.15,77.1428 388.6616,96.7526 374.7516,113.8126" fill="none" id="Cloud-to-Alexa" style="stroke:#181818;stroke-width:1;"/><polygon fill="#181818" points="370.96,118.4628,379.7474,114.0152,374.1196,114.5876,373.5472,108.9598,370.96,118.4628" style="stroke:#181818;stroke-width:1;"/><text fill="#000000" font-family="sans-serif" font-size="13" lengthAdjust="spacing" textLength="149.3921" x="471.41" y="56.9297">8: TextResponse("OK")</text></g><!--link Cloud to Hub--><g class="link" data-entity-1="Cloud" data-entity-2="Hub" data-source-line="26" data-uid="lnk9" id="link_Cloud_Hub"><path codeLine="26" d="M784.74,154.8428 C828.5,168.0528 891.38,184.8628 947.88,191.8628 C981.62,196.0428 1067.13,195.9928 1100.88,191.8628 C1157.3,184.9628 1220.05,168.5128 1264.3,155.3928" fill="none" id="Cloud-Hub" style="stroke:#181818;stroke-width:1;"/><text fill="#000000" font-family="sans-serif" font-size="13" lengthAdjust="spacing" textLength="91.5142" x="978.7413" y="152.9297">Command API</text><path d="M952.88,161.9956 L952.88,186.9956 L1095.88,186.9956 L1095.88,171.9956 L1085.88,161.9956 L952.88,161.9956" fill="#FFFF00" style="stroke:#181818;stroke-width:0.5;"/><path d="M1085.88,161.9956 L1085.88,171.9956 L1095.88,171.9956 L1085.88,161.9956" fill="#FFFF00" style="stroke:#181818;stroke-width:0.5;"/><text fill="#000000" font-family="sans-serif" font-size="13" lengthAdjust="spacing" textLength="122.2368" x="958.88" y="179.0625">Heatmap: MEDIUM</text></g><!--link Cloud to Hub--><g class="link" data-entity-1="Cloud" data-entity-2="Hub" data-source-line="46" data-uid="lnk14" id="link_Cloud_Hub"><path codeLine="46" d="M784.83,136.8628 C896.98,136.8628 1143.55,136.8628 1257.99,136.8628" fill="none" id="Cloud-to-Hub" style="stroke:#181818;stroke-width:1;"/><polygon fill="#181818" points="1263.99,136.8628,1254.99,132.8628,1258.99,136.8628,1254.99,140.8628,1263.99,136.8628" style="stroke:#181818;stroke-width:1;"/><text fill="#000000" font-family="sans-serif" font-size="13" lengthAdjust="spacing" textLength="200.9922" x="924.38" y="129.9297">4: SendCommand(LightID, ON)</text></g><!--link Hub to Cloud--><g class="link" data-entity-1="Hub" data-entity-2="Cloud" data-source-line="51" data-uid="lnk17" id="link_Hub_Cloud"><path codeLine="51" d="M1263.84,129.3528 C1224.72,124.7228 1172.06,119.2228 1125.38,116.8628 C1035.72,112.3228 1013.04,112.2528 923.38,116.8628 C876.53,119.2728 829.5265,124.2017 790.7865,128.8917" fill="none" id="Hub-to-Cloud" style="stroke:#181818;stroke-width:1;"/><polygon fill="#181818" points="784.83,129.6128,794.2455,132.5021,789.7938,129.0119,793.284,124.5601,784.83,129.6128" style="stroke:#181818;stroke-width:1;"/><text fill="#000000" font-family="sans-serif" font-size="13" lengthAdjust="spacing" textLength="69.1133" x="989.88" y="106.9297">7: Success</text></g><!--link Hub to Bulb--><g class="link" data-entity-1="Hub" data-entity-2="Bulb" data-source-line="31" data-uid="lnk10" id="link_Hub_Bulb"><path codeLine="31" d="M1380.8,136.8628 C1439.94,136.8628 1530.17,136.8628 1584.67,136.8628" fill="none" id="Hub-Bulb" style="stroke:#181818;stroke-width:1;"/><text fill="#000000" font-family="sans-serif" font-size="13" lengthAdjust="spacing" textLength="99.5059" x="1433.4814" y="79.9297">Zigbee/Z-Wave</text><path d="M1402.78,88.9956 L1402.78,128.9956 L1562.78,128.9956 L1562.78,98.9956 L1552.78,88.9956 L1402.78,88.9956" fill="#FFFF00" style="stroke:#181818;stroke-width:0.5;"/><path d="M1552.78,88.9956 L1552.78,98.9956 L1562.78,98.9956 L1552.78,88.9956" fill="#FFFF00" style="stroke:#181818;stroke-width:0.5;"/><text fill="#000000" font-family="sans-serif" font-size="13" lengthAdjust="spacing" textLength="98.5601" x="1408.78" y="106.0625">Heatmap: LOW</text><text fill="#000000" font-family="sans-serif" font-size="13" lengthAdjust="spacing" textLength="139.9087" x="1408.78" y="121.1953">(Status updates only)</text></g><!--link Hub to Bulb--><g class="link" data-entity-1="Hub" data-entity-2="Bulb" data-source-line="47" data-uid="lnk15" id="link_Hub_Bulb"><path codeLine="47" d="M1380.87,149.6728 C1396.96,152.6428 1414.47,155.3728 1430.78,156.8628 C1476.81,161.0728 1488.8,161.5728 1534.78,156.8628 C1551.29,155.1628 1563.2855,153.1506 1579.1055,149.7306" fill="none" id="Hub-to-Bulb" style="stroke:#181818;stroke-width:1;"/><polygon fill="#181818" points="1584.97,148.4628,1575.328,146.4548,1580.0829,149.5193,1577.0184,154.2742,1584.97,148.4628" style="stroke:#181818;stroke-width:1;"/><text fill="#000000" font-family="sans-serif" font-size="13" lengthAdjust="spacing" textLength="102.6416" x="1431.78" y="152.9297">5: SetState(ON)</text></g><!--link Bulb to Hub--><g class="link" data-entity-1="Bulb" data-entity-2="Hub" data-source-line="50" data-uid="lnk16" id="link_Bulb_Hub"><path codeLine="50" d="M1620.73,118.2328 C1609.9,101.2628 1591.34,77.2928 1567.78,66.8628 C1550.51,59.2128 1415.36,59.9628 1397.78,66.8628 C1371.49,77.1728 1352.6244,96.7107 1339.1844,113.7607" fill="none" id="Bulb-to-Hub" style="stroke:#181818;stroke-width:1;"/><polygon fill="#181818" points="1335.47,118.4728,1344.1829,113.881,1338.5653,114.5461,1337.9002,108.9285,1335.47,118.4728" style="stroke:#181818;stroke-width:1;"/><text fill="#000000" font-family="sans-serif" font-size="13" lengthAdjust="spacing" textLength="40.3521" x="1462.78" y="56.9297">6: Ack</text></g><!--link Cloud to Cloud--><g class="link" data-entity-1="Cloud" data-entity-2="Cloud" data-source-line="43" data-uid="lnk13" id="link_Cloud_Cloud"><path codeLine="43" d="M784.82,130.0528 C804.03,129.9828 819.54,132.2528 819.54,136.8628 C819.54,141.4728 810.03,143.7547 790.82,143.6847" fill="none" id="Cloud-to-Cloud" style="stroke:#181818;stroke-width:1;"/><polygon fill="#181818" points="784.82,143.6628,793.8054,147.6956,789.82,143.681,793.8345,139.6956,784.82,143.6628" style="stroke:#181818;stroke-width:1;"/><text fill="#000000" font-family="sans-serif" font-size="13" lengthAdjust="spacing" textLength="213.0337" x="825.54" y="141.4297">3: IdentifyDevice("Living Room")</text></g><!--SRC=[XPJRRjim38RlzHI4Tz44Q5Bqi9E15KYJhZ6MBaNJhbXl1iLcKYssPEYGfcy_KgxZtcoxKqZw_wcFLBpo9SBOL5NGAfTU6GqJ9TTMLYdS1QjXhc6cra_U2LcMvlbNfNPAhuKuW8L_AUa8AsDXYj9NieRUBHRm1QRq1TnPkLgf_12kBAAcwCmyjy6-S1kbQqa-e8t72vblrjO4NOnDINhlVYAx2M6Mlp7taAJt3cq2qW4Vkl0Fet8SEQUSbzh7Wb69EzbLJCDoRBItfYnV5IZIfHULjFuYbCkOuaEN6vSc50kqM_A8wHXexcv3xeEL9T7H6mVFoZ_jAKXDTuemdU1sOJ1eke8KajWnPBeEFX5yTo3c178Ze1L8OJP_e9-zQQYa1gKzMfd7uRWQiUWBr4Na9aIZImQnDpR8k5pZFzIdsTMKvObBn0Oo5Cg0ynPbTLJJKDywDCBaGDnOdxT5KdPqa_tTulfoajrVlr7XZqc30RF8erel4OyU1mzoY__bi22QmK6e2-dHKM7vyhR30xZ09xbLXkTnZSx9DJgA7W_ZjZ0qkMb7SRuVnJ7r4NSy6lEE9wnrCeGRQtAIuKL_vNk-vtkIjkauoLSQlOYmtyBgoazJo0hKNgrU9iYBr4jcQillvjQOAkcpu-aGMgYNEym3JxfJQh2VfR10VXwDNNoJsUGGvj_x3TlpbkrxhlIC37kS9OEp8NoblLdIAnEnQh3N_P32YABDUBgsFv98oFcM-_btu3xHVmFk_2swcZQ8RZJ_HXVPaugSK_XCU2dn1m00]--></g></svg>