<svg xmlns="http://www.w3.org/2000/svg" xmlns:xlink="http://www.w3.org/1999/xlink" contentStyleType="text/css" data-diagram-type="STATE" height="637px" preserveAspectRatio="none" style="width:758px;height:637px;background:#FFFFFF;" version="1.1" viewBox="0 0 758 637" width="758px" zoomAndPan="magnify"><title>Insurance Policy Lifecycle</title><defs/><g><g class="title" data-source-line="1"><text fill="#000000" font-family="sans-serif" font-size="14" font-weight="bold" lengthAdjust="spacing" textLength="203.5605" x="270.5022" y="22.9951">Insurance Policy Lifecycle</text></g><rect fill="#F1F1F1" height="40" rx="12.5" ry="12.5" style="stroke:#181818;stroke-width:0.5;" width="88.2646" x="181.56" y="140.2969"/><text fill="#000000" font-family="sans-serif" font-size="14" lengthAdjust="spacing" textLength="78.2646" x="186.56" y="165.1436">in progress</text><rect fill="#F1F1F1" height="40" rx="12.5" ry="12.5" style="stroke:#181818;stroke-width:0.5;" width="82.1943" x="308.6" y="272.2969"/><text fill="#000000" font-family="sans-serif" font-size="14" lengthAdjust="spacing" textLength="72.1943" x="313.6" y="297.1436">calculated</text><rect fill="#F1F1F1" height="42.5938" rx="12.5" ry="12.5" style="stroke:#181818;stroke-width:0.5;" width="110.2422" x="484.57" y="389.2969"/><text fill="#000000" font-family="sans-serif" font-size="14" lengthAdjust="spacing" textLength="100.2422" x="489.57" y="407.292">change option</text><text fill="#000000" font-family="sans-serif" font-size="14" lengthAdjust="spacing" textLength="56.9092" x="489.57" y="423.5889">pending</text><rect fill="#F1F1F1" height="40" rx="12.5" ry="12.5" style="stroke:#181818;stroke-width:0.5;" width="52.5537" x="393.42" y="390.5869"/><text fill="#000000" font-family="sans-serif" font-size="14" lengthAdjust="spacing" textLength="42.5537" x="398.42" y="415.4336">active</text><rect fill="#F1F1F1" height="40" rx="12.5" ry="12.5" style="stroke:#181818;stroke-width:0.5;" width="72.8496" x="234.27" y="508.8869"/><text fill="#000000" font-family="sans-serif" font-size="14" lengthAdjust="spacing" textLength="62.8496" x="239.27" y="533.7336">canceled</text><rect fill="#F1F1F1" height="40" rx="12.5" ry="12.5" style="stroke:#181818;stroke-width:0.5;" width="67.5586" x="505.92" y="508.8869"/><text fill="#000000" font-family="sans-serif" font-size="14" lengthAdjust="spacing" textLength="57.5586" x="510.92" y="533.7336">rejected</text><ellipse cx="225.69" cy="53.2969" fill="#222222" rx="10" ry="10" style="stroke:#222222;stroke-width:1;"/><ellipse cx="402.69" cy="620.8869" fill="none" rx="11" ry="11" style="stroke:#222222;stroke-width:1;"/><ellipse cx="402.69" cy="620.8869" fill="#222222" rx="6" ry="6" style="stroke:#222222;stroke-width:1;"/><!--link *start* to InProgress--><g class="link" data-entity-1=".start." data-entity-2="InProgress" data-source-line="11" data-uid="lnk3" id="link_.start._InProgress"><path d="M225.69,63.6069 C225.69,80.6769 225.69,111.2669 225.69,133.9269" fill="none" id="*start*-to-InProgress" style="stroke:#181818;stroke-width:1;"/><polygon fill="#181818" points="225.69,139.9269,229.69,130.9269,225.69,134.9269,221.69,130.9269,225.69,139.9269" style="stroke:#181818;stroke-width:1;"/><text fill="#000000" font-family="sans-serif" font-size="13" lengthAdjust="spacing" textLength="120.25" x="226.69" y="106.3638">Create Application</text></g><!--link InProgress to Canceled--><g class="link" data-entity-1="InProgress" data-entity-2="Canceled" data-source-line="13" data-uid="lnk4" id="link_InProgress_Canceled"><path d="M181.14,180.4269 C116.09,211.5169 6,277.7969 36.69,359.2969 C61.63,425.4869 83.58,438.5569 141.69,478.8869 C169.84,498.4169 201.0161,509.7851 228.1561,517.4551" fill="none" id="InProgress-to-Canceled" style="stroke:#181818;stroke-width:1;"/><polygon fill="#181818" points="233.93,519.0869,226.357,512.79,229.1185,517.7271,224.1814,520.4885,233.93,519.0869" style="stroke:#181818;stroke-width:1;"/><text fill="#000000" font-family="sans-serif" font-size="13" lengthAdjust="spacing" textLength="86.0298" x="37.69" y="355.3638">Cancel Policy</text></g><!--link Canceled to InProgress--><g class="link" data-entity-1="Canceled" data-entity-2="InProgress" data-source-line="27" data-uid="lnk14" id="link_Canceled_InProgress"><path d="M262.46,508.5869 C249.67,477.6969 225.3,414.9469 213.69,359.2969 C203.04,308.2069 205.92,294.4369 203.69,242.2969 C203.09,228.0869 200.72,224.1969 203.69,210.2969 C205.88,200.0769 207.7015,194.8008 212.0515,186.0408" fill="none" id="Canceled-to-InProgress" style="stroke:#181818;stroke-width:1;"/><polygon fill="#181818" points="214.72,180.6669,207.1346,186.9487,212.4962,185.1451,214.2998,190.5068,214.72,180.6669" style="stroke:#181818;stroke-width:1;"/><text fill="#000000" font-family="sans-serif" font-size="13" lengthAdjust="spacing" textLength="78.8887" x="214.69" y="355.3638">Reset Policy</text></g><!--link InProgress to Calculated--><g class="link" data-entity-1="InProgress" data-entity-2="Calculated" data-source-line="14" data-uid="lnk5" id="link_InProgress_Calculated"><path d="M270.22,172.2269 C291.45,179.6169 315.47,191.5569 330.69,210.2969 C344.9,227.7769 348.541,248.0448 349.461,265.8848" fill="none" id="InProgress-to-Calculated" style="stroke:#181818;stroke-width:1;"/><polygon fill="#181818" points="349.77,271.8769,353.3012,262.6828,349.5125,266.8835,345.3118,263.0948,349.77,271.8769" style="stroke:#181818;stroke-width:1;"/><text fill="#000000" font-family="sans-serif" font-size="13" lengthAdjust="spacing" textLength="102.7051" x="345.69" y="230.8638">Calculate Policy</text></g><!--link Calculated to InProgress--><g class="link" data-entity-1="Calculated" data-entity-2="InProgress" data-source-line="17" data-uid="lnk7" id="link_Calculated_InProgress"><path d="M308.17,287.9069 C277.85,283.0169 238.69,271.1269 218.69,242.2969 C206.23,224.3169 209.4764,204.0933 215.5164,186.4533" fill="none" id="Calculated-to-InProgress" style="stroke:#181818;stroke-width:1;"/><polygon fill="#181818" points="217.46,180.7769,210.7602,187.9958,215.8403,185.5073,218.3288,190.5873,217.46,180.7769" style="stroke:#181818;stroke-width:1;"/><text fill="#000000" font-family="sans-serif" font-size="13" lengthAdjust="spacing" textLength="89.1909" x="226.2693" y="223.3638">Any Use Case</text><text fill="#000000" font-family="sans-serif" font-size="13" lengthAdjust="spacing" textLength="102.3496" x="219.69" y="238.4966">changing policy</text></g><!--link InProgress to Rejected--><g class="link" data-entity-1="InProgress" data-entity-2="Rejected" data-source-line="15" data-uid="lnk6" id="link_InProgress_Rejected"><path d="M270.19,165.6469 C317.85,171.4569 394.95,184.2069 456.69,210.2969 C553.78,251.3069 588.54,259.4569 653.69,342.2969 C693.13,392.4269 735.53,427.5369 697.69,478.8869 C669.33,517.3869 617.0238,526.2537 579.7238,527.9537" fill="none" id="InProgress-to-Rejected" style="stroke:#181818;stroke-width:1;"/><polygon fill="#181818" points="573.73,528.2269,582.9028,531.813,578.7248,527.9992,582.5386,523.8213,573.73,528.2269" style="stroke:#181818;stroke-width:1;"/><text fill="#000000" font-family="sans-serif" font-size="13" lengthAdjust="spacing" textLength="82.875" x="667.69" y="355.3638">Reject Policy</text></g><!--link Calculated to Canceled--><g class="link" data-entity-1="Calculated" data-entity-2="Canceled" data-source-line="18" data-uid="lnk8" id="link_Calculated_Canceled"><path d="M334.74,312.4369 C328.03,321.3369 320.18,332.1569 313.69,342.2969 C300.82,362.3969 295.06,366.5869 287.69,389.2969 C274.38,430.3369 271.4921,475.3083 270.8921,502.5583" fill="none" id="Calculated-to-Canceled" style="stroke:#181818;stroke-width:1;"/><polygon fill="#181818" points="270.76,508.5569,274.9571,499.6471,270.8701,503.5581,266.9591,499.471,270.76,508.5569" style="stroke:#181818;stroke-width:1;"/><text fill="#000000" font-family="sans-serif" font-size="13" lengthAdjust="spacing" textLength="86.0298" x="288.69" y="415.1538">Cancel Policy</text></g><!--link Calculated to Active--><g class="link" data-entity-1="Calculated" data-entity-2="Active" data-source-line="19" data-uid="lnk9" id="link_Calculated_Active"><path d="M333.97,312.6469 C324.92,326.2869 316.92,344.6469 325.69,359.2969 C333.3,371.9969 362.5923,386.1335 387.6323,396.7035" fill="none" id="Calculated-to-Active" style="stroke:#181818;stroke-width:1;"/><polygon fill="#181818" points="393.16,399.0369,386.424,391.8517,388.5536,397.0924,383.3129,399.2219,393.16,399.0369" style="stroke:#181818;stroke-width:1;"/><text fill="#000000" font-family="sans-serif" font-size="13" lengthAdjust="spacing" textLength="93.3677" x="326.69" y="355.3638">Release Policy</text></g><!--link Calculated to ChangeOption--><g class="link" data-entity-1="Calculated" data-entity-2="ChangeOption" data-source-line="20" data-uid="lnk10" id="link_Calculated_ChangeOption"><path d="M391.27,297.0269 C446.14,302.9169 538.21,316.4469 558.69,342.2969 C569.25,355.6169 565.5549,369.2763 557.3449,383.6563" fill="none" id="Calculated-to-ChangeOption" style="stroke:#181818;stroke-width:1;"/><polygon fill="#181818" points="554.37,388.8669,562.306,383.0343,556.8491,384.5247,555.3586,379.0678,554.37,388.8669" style="stroke:#181818;stroke-width:1;"/><text fill="#000000" font-family="sans-serif" font-size="13" lengthAdjust="spacing" textLength="80.2471" x="564.69" y="355.3638">Offer Option</text></g><!--link ChangeOption to Calculated--><g class="link" data-entity-1="ChangeOption" data-entity-2="Calculated" data-source-line="22" data-uid="lnk11" id="link_ChangeOption_Calculated"><path d="M505.33,388.8469 C490.37,379.7969 472.65,369.0469 456.69,359.2969 C431.18,343.6969 407.4329,329.0429 386.1229,315.8629" fill="none" id="ChangeOption-to-Calculated" style="stroke:#181818;stroke-width:1;"/><polygon fill="#181818" points="381.02,312.7069,386.5703,320.8429,385.2724,315.3369,390.7783,314.0391,381.02,312.7069" style="stroke:#181818;stroke-width:1;"/><text fill="#000000" font-family="sans-serif" font-size="13" lengthAdjust="spacing" textLength="92.0537" x="457.69" y="355.3638">Accept Option</text></g><!--link ChangeOption to Rejected--><g class="link" data-entity-1="ChangeOption" data-entity-2="Rejected" data-source-line="23" data-uid="lnk12" id="link_ChangeOption_Rejected"><path d="M539.69,432.3769 C539.69,453.9369 539.69,481.3869 539.69,502.4369" fill="none" id="ChangeOption-to-Rejected" style="stroke:#181818;stroke-width:1;"/><polygon fill="#181818" points="539.69,508.4369,543.69,499.4369,539.69,503.4369,535.69,499.4369,539.69,508.4369" style="stroke:#181818;stroke-width:1;"/><text fill="#000000" font-family="sans-serif" font-size="13" lengthAdjust="spacing" textLength="150.5093" x="540.69" y="474.9538">Reject Option (Implicit)</text></g><!--link Active to Canceled--><g class="link" data-entity-1="Active" data-entity-2="Canceled" data-source-line="25" data-uid="lnk13" id="link_Active_Canceled"><path d="M394.76,431.0569 C367.09,452.6569 327.4493,483.5845 299.9493,505.0545" fill="none" id="Active-to-Canceled" style="stroke:#181818;stroke-width:1;"/><polygon fill="#181818" points="295.22,508.7469,304.7756,506.3613,299.1611,505.6699,299.8525,500.0555,295.22,508.7469" style="stroke:#181818;stroke-width:1;"/><text fill="#000000" font-family="sans-serif" font-size="13" lengthAdjust="spacing" textLength="97.4937" x="354.69" y="474.9538">Expiry / Cancel</text></g><!--link Rejected to *end*--><g class="link" data-entity-1="Rejected" data-entity-2=".end." data-source-line="29" data-uid="lnk16" id="link_Rejected_.end."><path d="M510.3,549.1969 C479.01,569.7469 436.3657,597.774 416.6857,610.694" fill="none" id="Rejected-to-*end*" style="stroke:#181818;stroke-width:1;"/><polygon fill="#181818" points="411.67,613.9869,421.3888,612.3914,415.8498,611.2429,416.9983,605.7038,411.67,613.9869" style="stroke:#181818;stroke-width:1;"/></g><!--link Canceled to *end*--><g class="link" data-entity-1="Canceled" data-entity-2=".end." data-source-line="30" data-uid="lnk17" id="link_Canceled_.end."><path d="M299.01,549.1969 C329.01,569.6469 369.6735,597.3656 388.8035,610.4156" fill="none" id="Canceled-to-*end*" style="stroke:#181818;stroke-width:1;"/><polygon fill="#181818" points="393.76,613.7969,388.5793,605.4207,389.6295,610.9792,384.071,612.0294,393.76,613.7969" style="stroke:#181818;stroke-width:1;"/></g><!--SRC=[TP9DQyCm38Rl_XMYfsrGUjzX4CeEXK5BOQTr1-CehOVh6DiTox-V_9McCRb9qIFfrUjuwHN2JhkRvLeW77ebnG0ViaCn28Ni8bi4l1e_G8jEM6cyx3LZpdEFi98QZEtF5frR0NSqwP3JGWYkn4rHs4PWEwOZSE7wZD37mITjKBTIdnCSI_kqCkDSUFcBiTp4yBw83b3ZcfIKeiKV54N3CIUCVRrymthzDf4Dhx2r67eQOyWBdiwT084lumCTmsnSpPLh8vcJ1RZ88ZI5XMEJCPNQHW_mwP2cEppfQ2RP1oQrpZeNTS-uv6mKef06Bs3Jzo5uttLe8JyNUoXMPZH2eF45hjZQYrnysbt3iqZ_p5XMEJli_Sz8Ey0cVmlkvLhbtH4TtbqUTmQE_ep7Hlhm3m00]--></g></svg>