<svg xmlns="http://www.w3.org/2000/svg" xmlns:xlink="http://www.w3.org/1999/xlink" contentStyleType="text/css" data-diagram-type="STATE" height="521px" preserveAspectRatio="none" style="width:815px;height:521px;background:#FFFFFF;" version="1.1" viewBox="0 0 815 521" width="815px" zoomAndPan="magnify"><title>Sliding Door State Machine</title><defs/><g><g class="title" data-source-line="1"><text fill="#000000" font-family="sans-serif" font-size="14" font-weight="bold" lengthAdjust="spacing" textLength="215.1885" x="293.3188" y="22.9951">Sliding Door State Machine</text></g><rect fill="#F1F1F1" height="40" rx="12.5" ry="12.5" style="stroke:#181818;stroke-width:0.5;" width="57.0244" x="515.49" y="124.2969"/><text fill="#000000" font-family="sans-serif" font-size="14" lengthAdjust="spacing" textLength="47.0244" x="520.49" y="149.1436">Closed</text><rect fill="#F1F1F1" height="40" rx="12.5" ry="12.5" style="stroke:#181818;stroke-width:0.5;" width="69.042" x="276.48" y="241.2969"/><text fill="#000000" font-family="sans-serif" font-size="14" lengthAdjust="spacing" textLength="59.042" x="281.48" y="266.1436">Opening</text><rect fill="#F1F1F1" height="40" rx="12.5" ry="12.5" style="stroke:#181818;stroke-width:0.5;" width="50" x="7" y="358.2969"/><text fill="#000000" font-family="sans-serif" font-size="14" lengthAdjust="spacing" textLength="37.3926" x="13.3037" y="383.1436">Open</text><rect fill="#F1F1F1" height="40" rx="12.5" ry="12.5" style="stroke:#181818;stroke-width:0.5;" width="61.1738" x="415.41" y="475.2969"/><text fill="#000000" font-family="sans-serif" font-size="14" lengthAdjust="spacing" textLength="51.1738" x="420.41" y="500.1436">Closing</text><rect fill="#F1F1F1" height="40" rx="12.5" ry="12.5" style="stroke:#181818;stroke-width:0.5;" width="59.6699" x="597.17" y="241.2969"/><text fill="#000000" font-family="sans-serif" font-size="14" lengthAdjust="spacing" textLength="49.6699" x="602.17" y="266.1436">Locked</text><ellipse cx="544" cy="53.2969" fill="#222222" rx="10" ry="10" style="stroke:#222222;stroke-width:1;"/><!--link *start* to Closed--><g class="link" data-entity-1=".start." data-entity-2="Closed" data-source-line="10" data-uid="lnk3" id="link_.start._Closed"><path d="M544,63.4869 C544,77.6969 544,99.3169 544,118.0369" fill="none" id="*start*-to-Closed" style="stroke:#181818;stroke-width:1;"/><polygon fill="#181818" points="544,124.0369,548,115.0369,544,119.0369,540,115.0369,544,124.0369" style="stroke:#181818;stroke-width:1;"/></g><!--link Closed to Opening--><g class="link" data-entity-1="Closed" data-entity-2="Opening" data-source-line="12" data-uid="lnk4" id="link_Closed_Opening"><path d="M515.01,145.5869 C473.84,147.4069 397.89,156.1769 348,194.2969 C332.66,206.0169 324.8569,220.4265 319.1969,235.3565" fill="none" id="Closed-to-Opening" style="stroke:#181818;stroke-width:1;"/><polygon fill="#181818" points="317.07,240.9669,324.0006,233.9693,318.8424,236.2916,316.5201,231.1334,317.07,240.9669" style="stroke:#181818;stroke-width:1;"/><text fill="#000000" font-family="sans-serif" font-size="13" lengthAdjust="spacing" textLength="107.8784" x="349" y="207.3638">Person Detected</text></g><!--link Closed to Locked--><g class="link" data-entity-1="Closed" data-entity-2="Locked" data-source-line="13" data-uid="lnk5" id="link_Closed_Locked"><path d="M515.2,155.9869 C487.35,167.9769 451.71,188.7069 469,211.2969 C500.07,251.8769 531.56,225.0269 580,241.2969 C585.51,243.1469 585.714,243.1167 591.274,245.2967" fill="none" id="Closed-to-Locked" style="stroke:#181818;stroke-width:1;"/><polygon fill="#181818" points="596.86,247.4869,589.9412,240.4776,592.205,245.6617,587.0209,247.9256,596.86,247.4869" style="stroke:#181818;stroke-width:1;"/><text fill="#000000" font-family="sans-serif" font-size="13" lengthAdjust="spacing" textLength="102.2607" x="470" y="207.3638">Key Turn (Lock)</text></g><!--link Locked to Closed--><g class="link" data-entity-1="Locked" data-entity-2="Closed" data-source-line="15" data-uid="lnk6" id="link_Locked_Closed"><path d="M613.06,240.9869 C597.72,219.7369 576.721,190.6423 561.401,169.4123" fill="none" id="Locked-to-Closed" style="stroke:#181818;stroke-width:1;"/><polygon fill="#181818" points="557.89,164.5469,559.9129,174.1858,560.8158,168.6014,566.4002,169.5044,557.89,164.5469" style="stroke:#181818;stroke-width:1;"/><text fill="#000000" font-family="sans-serif" font-size="13" lengthAdjust="spacing" textLength="116.3843" x="592" y="207.3638">Key Turn (Unlock)</text></g><!--link Opening to Open--><g class="link" data-entity-1="Opening" data-entity-2="Open" data-source-line="17" data-uid="lnk7" id="link_Opening_Open"><path d="M276.23,276.6269 C219.26,300.1069 112.9169,343.9396 62.8369,364.5896" fill="none" id="Opening-to-Open" style="stroke:#181818;stroke-width:1;"/><polygon fill="#181818" points="57.29,366.8769,67.1352,367.144,61.9125,364.9709,64.0856,359.7481,57.29,366.8769" style="stroke:#181818;stroke-width:1;"/><text fill="#000000" font-family="sans-serif" font-size="13" lengthAdjust="spacing" textLength="104.8823" x="190" y="324.3638">Door Fully Open</text></g><!--link Opening to Opening--><g class="link" data-entity-1="Opening" data-entity-2="Opening" data-source-line="18" data-uid="lnk8" id="link_Opening_Opening"><path d="M345.7,250.7469 C363.97,249.0369 380.52,252.5569 380.52,261.2969 C380.52,270.0369 369.9439,274.116 351.6739,272.406" fill="none" id="Opening-to-Opening" style="stroke:#181818;stroke-width:1;"/><polygon fill="#181818" points="345.7,271.8469,354.2881,276.6682,350.6782,272.3128,355.0336,268.703,345.7,271.8469" style="stroke:#181818;stroke-width:1;"/><text fill="#000000" font-family="sans-serif" font-size="13" lengthAdjust="spacing" textLength="187.7764" x="386.52" y="265.8638">Person Detected (Re-trigger)</text></g><!--link Open to Closing--><g class="link" data-entity-1="Open" data-entity-2="Closing" data-source-line="20" data-uid="lnk9" id="link_Open_Closing"><path d="M57.35,387.5869 C97.42,400.5769 177.94,426.2069 247,445.2969 C306.16,461.6469 370.1042,476.8553 409.3342,485.9253" fill="none" id="Open-to-Closing" style="stroke:#181818;stroke-width:1;"/><polygon fill="#181818" points="415.18,487.2769,407.3123,481.3524,410.3085,486.1506,405.5103,489.1467,415.18,487.2769" style="stroke:#181818;stroke-width:1;"/><text fill="#000000" font-family="sans-serif" font-size="13" lengthAdjust="spacing" textLength="82.8242" x="248" y="441.3638">Timeout (5s)</text></g><!--link Open to Open--><g class="link" data-entity-1="Open" data-entity-2="Open" data-source-line="21" data-uid="lnk10" id="link_Open_Open"><path d="M57.28,368.3969 C74.77,365.3969 92,368.6969 92,378.2969 C92,387.8969 80.6836,392.2112 63.1936,389.2112" fill="none" id="Open-to-Open" style="stroke:#181818;stroke-width:1;"/><polygon fill="#181818" points="57.28,388.1969,65.4742,393.6608,62.208,389.0422,66.8267,385.776,57.28,388.1969" style="stroke:#181818;stroke-width:1;"/><text fill="#000000" font-family="sans-serif" font-size="13" lengthAdjust="spacing" textLength="200.7446" x="98" y="382.8638">Person Detected (Reset Timer)</text></g><!--link Closing to Opening--><g class="link" data-entity-1="Closing" data-entity-2="Opening" data-source-line="23" data-uid="lnk11" id="link_Closing_Opening"><path d="M432.95,475.0969 C420.06,455.9169 400.03,425.4669 384,398.2969 C359.9,357.4469 336.955,313.4124 323.405,286.8324" fill="none" id="Closing-to-Opening" style="stroke:#181818;stroke-width:1;"/><polygon fill="#181818" points="320.68,281.4869,321.2039,291.3218,322.9509,285.9414,328.3312,287.6884,320.68,281.4869" style="stroke:#181818;stroke-width:1;"/><text fill="#000000" font-family="sans-serif" font-size="13" lengthAdjust="spacing" textLength="107.8784" x="385" y="382.8638">Person Detected</text></g><!--link Closing to Opening--><g class="link" data-entity-1="Closing" data-entity-2="Opening" data-source-line="24" data-uid="lnk12" id="link_Closing_Opening"><path d="M463.44,475.2469 C486.19,447.9769 520.48,396.8469 497,358.2969 C464.1,304.2969 395.8386,280.7391 351.7386,270.2991" fill="none" id="Closing-to-Opening-1" style="stroke:#181818;stroke-width:1;"/><polygon fill="#181818" points="345.9,268.9169,353.7365,274.8826,350.7655,270.0687,355.5794,267.0978,345.9,268.9169" style="stroke:#181818;stroke-width:1;"/><text fill="#000000" font-family="sans-serif" font-size="13" lengthAdjust="spacing" textLength="120.8086" x="506" y="382.8638">Obstacle Detected</text></g><!--link Closing to Closed--><g class="link" data-entity-1="Closing" data-entity-2="Closed" data-source-line="25" data-uid="lnk13" id="link_Closing_Closed"><path d="M476.8,485.8269 C517.87,473.0969 590.52,445.3769 635,398.2969 C697.32,332.3369 698.38,300.1169 717,211.2969 C718.55,203.9069 721.56,200.3269 717,194.2969 C699.63,171.3269 623.3721,156.9168 578.8121,150.1568" fill="none" id="Closing-to-Closed" style="stroke:#181818;stroke-width:1;"/><polygon fill="#181818" points="572.88,149.2569,581.1782,154.5615,577.8234,150.0068,582.3781,146.652,572.88,149.2569" style="stroke:#181818;stroke-width:1;"/><text fill="#000000" font-family="sans-serif" font-size="13" lengthAdjust="spacing" textLength="113.8262" x="694" y="324.3638">Door Fully Closed</text></g><!--SRC=[XP4x3i8m343tdC9ZGUh8mi02OW5Kn6T2391QnI8aLU8ElJsXIMc1IanHxETdns5YXR1Nb9CkO66CXJrV665paJVIA6wK8-2Zv1foTD9IoMIq4AwXvieupECbAr5xI-_Mexh4siYxhn6dyHdITDOwH3YRK3J15BPedT6mG4R9dkf1mUEP5TPmgAo6v1KQ2H4pdVm3EceLiBPBsz5JpGAMbL9rcFyR6HmAaXscRAaeq4RjktSeED03JSMGJDoeoyUU0pQ7tDIyTAtb_rv-gUpgLoxz1mzoxztqNXrYJm00]--></g></svg>