<svg xmlns="http://www.w3.org/2000/svg" xmlns:xlink="http://www.w3.org/1999/xlink" contentStyleType="text/css" data-diagram-type="CLASS" height="395px" preserveAspectRatio="none" style="width:375px;height:395px;background:#FFFFFF;" version="1.1" viewBox="0 0 375 395" width="375px" zoomAndPan="magnify"><defs/><g><!--class User--><g class="entity" data-entity="User" data-source-line="4" data-uid="ent0002" id="entity_User"><rect fill="#FFFFFF" height="190.6719" rx="2.5" ry="2.5" style="stroke:#000000;stroke-width:1;" width="356.3877" x="12" y="12"/><ellipse cx="170.4888" cy="26" fill="#FFFFFF" rx="9" ry="9" style="stroke:#000000;stroke-width:1;"/><path d="M173.4575,31.6406 Q172.8794,31.9375 172.2388,32.0781 Q171.5981,32.2344 170.895,32.2344 Q168.395,32.2344 167.0669,30.5938 Q165.7544,28.9375 165.7544,25.8125 Q165.7544,22.6875 167.0669,21.0313 Q168.395,19.375 170.895,19.375 Q171.5981,19.375 172.2388,19.5313 Q172.895,19.6875 173.4575,19.9844 L173.4575,22.7031 Q172.8325,22.125 172.2388,21.8594 Q171.645,21.5781 171.02,21.5781 Q169.6763,21.5781 168.9888,22.6563 Q168.3013,23.7188 168.3013,25.8125 Q168.3013,27.9063 168.9888,28.9844 Q169.6763,30.0469 171.02,30.0469 Q171.645,30.0469 172.2388,29.7813 Q172.8325,29.5 173.4575,28.9219 L173.4575,31.6406 Z " fill="#000000"/><text fill="#000000" font-family="Verdana" font-size="14" lengthAdjust="spacing" textLength="31.9102" x="187.9888" y="30.8467">User</text><line style="stroke:#000000;stroke-width:1;" x1="13" x2="367.3877" y1="40" y2="40"/><text fill="#000000" font-family="Verdana" font-size="14" lengthAdjust="spacing" textLength="64.3604" x="18" y="56.9951">+UUID id</text><text fill="#000000" font-family="Verdana" font-size="14" lengthAdjust="spacing" textLength="344.3877" x="18" y="73.292">+String email {unique, pattern="^.+@.+\..+$"}</text><text fill="#000000" font-family="Verdana" font-size="14" lengthAdjust="spacing" textLength="159.9473" x="18" y="89.5889">+String passwordHash</text><text fill="#000000" font-family="Verdana" font-size="14" lengthAdjust="spacing" textLength="97.665" x="18" y="105.8857">+String name</text><text fill="#000000" font-family="Verdana" font-size="14" lengthAdjust="spacing" textLength="153.0361" x="18" y="122.1826">+DateTime createdAt</text><text fill="#000000" font-family="Verdana" font-size="14" lengthAdjust="spacing" textLength="177.0508" x="18" y="138.4795">+Boolean isEmailVerified</text><line style="stroke:#000000;stroke-width:1;" x1="13" x2="367.3877" y1="145.7813" y2="145.7813"/><text fill="#000000" font-family="Verdana" font-size="14" lengthAdjust="spacing" textLength="239.7773" x="18" y="162.7764">+register(email, password, name)</text><text fill="#000000" font-family="Verdana" font-size="14" lengthAdjust="spacing" textLength="140.9023" x="18" y="179.0732">+verifyEmail(token)</text><text fill="#000000" font-family="Verdana" font-size="14" lengthAdjust="spacing" textLength="199.623" x="18" y="195.3701">+changePassword(old, new)</text></g><!--class VerificationToken--><g class="entity" data-entity="VerificationToken" data-source-line="16" data-uid="ent0003" id="entity_VerificationToken"><rect fill="#FFFFFF" height="109.1875" rx="2.5" ry="2.5" style="stroke:#000000;stroke-width:1;" width="187.9229" x="96.23" y="279.67"/><ellipse cx="126.0887" cy="293.67" fill="#FFFFFF" rx="9" ry="9" style="stroke:#000000;stroke-width:1;"/><path d="M129.0575,299.3106 Q128.4794,299.6075 127.8387,299.7481 Q127.1981,299.9044 126.495,299.9044 Q123.995,299.9044 122.6669,298.2638 Q121.3544,296.6075 121.3544,293.4825 Q121.3544,290.3575 122.6669,288.7013 Q123.995,287.045 126.495,287.045 Q127.1981,287.045 127.8387,287.2013 Q128.495,287.3575 129.0575,287.6544 L129.0575,290.3731 Q128.4325,289.795 127.8387,289.5294 Q127.245,289.2481 126.62,289.2481 Q125.2762,289.2481 124.5887,290.3263 Q123.9012,291.3888 123.9012,293.4825 Q123.9012,295.5763 124.5887,296.6544 Q125.2762,297.7169 126.62,297.7169 Q127.245,297.7169 127.8387,297.4513 Q128.4325,297.17 129.0575,296.5919 L129.0575,299.3106 Z " fill="#000000"/><text fill="#000000" font-family="Verdana" font-size="14" lengthAdjust="spacing" textLength="122.459" x="141.8351" y="298.5167">VerificationToken</text><line style="stroke:#000000;stroke-width:1;" x1="97.23" x2="283.1529" y1="307.67" y2="307.67"/><text fill="#000000" font-family="Verdana" font-size="14" lengthAdjust="spacing" textLength="64.3604" x="102.23" y="324.6651">+UUID id</text><text fill="#000000" font-family="Verdana" font-size="14" lengthAdjust="spacing" textLength="175.9229" x="102.23" y="340.962">+String token {indexed}</text><text fill="#000000" font-family="Verdana" font-size="14" lengthAdjust="spacing" textLength="150.7393" x="102.23" y="357.2589">+DateTime expiresAt</text><line style="stroke:#000000;stroke-width:1;" x1="97.23" x2="283.1529" y1="364.5606" y2="364.5606"/><text fill="#000000" font-family="Verdana" font-size="14" lengthAdjust="spacing" textLength="138.9678" x="102.23" y="381.5557">+isValid() : Boolean</text></g><!--reverse link User to VerificationToken--><g class="link" data-entity-1="User" data-entity-2="VerificationToken" data-source-line="23" data-uid="lnk4" id="link_User_VerificationToken"><path codeLine="23" d="M190.19,215.08 C190.19,241.13 190.19,256.48 190.19,279.36" fill="none" id="User-backto-VerificationToken" style="stroke:#000000;stroke-width:1;"/><polygon fill="#000000" points="190.19,203.08,186.19,209.08,190.19,215.08,194.19,209.08,190.19,203.08" style="stroke:#000000;stroke-width:1;"/><polygon fill="#000000" points="195.19,246.2364,198.1289,237.1913,192.2511,237.1913,195.19,246.2364" style="stroke:#000000;stroke-width:1;"/><text fill="#000000" font-family="Verdana" font-size="13" lengthAdjust="spacing" textLength="22.9785" x="204.19" y="245.7369">has</text><text fill="#000000" font-family="Verdana" font-size="13" lengthAdjust="spacing" textLength="8.271" x="181.9059" y="222.7338">1</text><text fill="#000000" font-family="Verdana" font-size="13" lengthAdjust="spacing" textLength="24.8066" x="164.704" y="268.4399">0..1</text></g><!--SRC=[VL71JeD04Btp5IFn0499lJRHM5CJUpDfwScOJ664IPTTt5rijU7VNIWqgIRkQNRVl7dlpLxPaYg2MY1Bp-nOrgYnWaoWCNDhDMyRIyjCoHL_4qmzhqSWDQJXw84x4QJfSW6S3xUL8ya2g48MS6maVpGKGutMafPt_biIFIJHQv94rtvxIQdTvBtI-JEQyXAHMD7mia1BQtQMCqskpETs01wL4eGIs3nrqXlI_Cuqkj9Ki74EWjvNVDQA-zdXqFNPaRvwVc3LZkG8P2NAWbu6Kg14HwHzwBNZHavw6LfMSjrH_r-FFRMmpEb0UVix71rgrcJEuTXiK70UX30RWtRI_JVujpxSJ2RWJvF4bN-DpA140_S_]--></g></svg>